<mxfile host="Electron" modified="2024-01-31T06:11:26.459Z" agent="Mozilla/5.0 (Windows NT 10.0; Win64; x64) AppleWebKit/537.36 (KHTML, like Gecko) draw.io/23.0.2 Chrome/120.0.6099.109 Electron/28.1.0 Safari/537.36" etag="tiLOlHvCBSaWnRXxIE7-" version="23.0.2" type="device">
  <diagram name="第 1 页" id="Y4g7GIq-1Ql1KsTrmyGR">
    <mxGraphModel dx="1102" dy="818" grid="1" gridSize="10" guides="1" tooltips="1" connect="1" arrows="1" fold="1" page="1" pageScale="1" pageWidth="827" pageHeight="1169" math="0" shadow="0">
      <root>
        <mxCell id="0" />
        <mxCell id="1" parent="0" />
        <mxCell id="pzWBq1sp7E6JB9ialVkg-1" value="" style="rounded=0;whiteSpace=wrap;html=1;container=1;verticalAlign=bottom;strokeColor=none;fillColor=none;" vertex="1" parent="1">
          <mxGeometry x="429.9999999999999" y="230" width="270" height="220" as="geometry">
            <mxRectangle x="177" y="190" width="50" height="40" as="alternateBounds" />
          </mxGeometry>
        </mxCell>
        <mxCell id="pzWBq1sp7E6JB9ialVkg-2" value="" style="group" vertex="1" connectable="0" parent="pzWBq1sp7E6JB9ialVkg-1">
          <mxGeometry x="10" y="-2.2737367544323206e-13" width="250" height="190.00000000000023" as="geometry" />
        </mxCell>
        <mxCell id="pzWBq1sp7E6JB9ialVkg-3" value="18" style="ellipse;whiteSpace=wrap;html=1;fontFamily=Times New Roman;fontSize=19;" vertex="1" parent="pzWBq1sp7E6JB9ialVkg-2">
          <mxGeometry x="120" width="40" height="40" as="geometry" />
        </mxCell>
        <mxCell id="pzWBq1sp7E6JB9ialVkg-4" value="15" style="ellipse;whiteSpace=wrap;html=1;fontFamily=Times New Roman;fontSize=19;" vertex="1" parent="pzWBq1sp7E6JB9ialVkg-2">
          <mxGeometry x="60" y="50" width="40" height="40" as="geometry" />
        </mxCell>
        <mxCell id="pzWBq1sp7E6JB9ialVkg-5" style="edgeStyle=none;html=1;fontFamily=Times New Roman;fontSize=19;endArrow=none;endFill=0;rounded=0;" edge="1" parent="pzWBq1sp7E6JB9ialVkg-2" source="pzWBq1sp7E6JB9ialVkg-3" target="pzWBq1sp7E6JB9ialVkg-4">
          <mxGeometry relative="1" as="geometry" />
        </mxCell>
        <mxCell id="pzWBq1sp7E6JB9ialVkg-6" value="29" style="ellipse;whiteSpace=wrap;html=1;fontFamily=Times New Roman;fontSize=19;" vertex="1" parent="pzWBq1sp7E6JB9ialVkg-2">
          <mxGeometry x="180" y="50" width="40" height="40" as="geometry" />
        </mxCell>
        <mxCell id="pzWBq1sp7E6JB9ialVkg-7" style="edgeStyle=none;html=1;fontFamily=Times New Roman;fontSize=19;endArrow=none;endFill=0;rounded=0;" edge="1" parent="pzWBq1sp7E6JB9ialVkg-2" source="pzWBq1sp7E6JB9ialVkg-3" target="pzWBq1sp7E6JB9ialVkg-6">
          <mxGeometry relative="1" as="geometry" />
        </mxCell>
        <mxCell id="pzWBq1sp7E6JB9ialVkg-8" value="6" style="ellipse;whiteSpace=wrap;html=1;fontFamily=Times New Roman;fontSize=19;" vertex="1" parent="pzWBq1sp7E6JB9ialVkg-2">
          <mxGeometry x="30" y="100" width="40" height="40" as="geometry" />
        </mxCell>
        <mxCell id="pzWBq1sp7E6JB9ialVkg-9" style="edgeStyle=none;html=1;fontFamily=Times New Roman;fontSize=19;endArrow=none;endFill=0;rounded=0;" edge="1" parent="pzWBq1sp7E6JB9ialVkg-2" source="pzWBq1sp7E6JB9ialVkg-4" target="pzWBq1sp7E6JB9ialVkg-8">
          <mxGeometry relative="1" as="geometry" />
        </mxCell>
        <mxCell id="pzWBq1sp7E6JB9ialVkg-11" value="17" style="ellipse;whiteSpace=wrap;html=1;fontFamily=Times New Roman;fontSize=19;" vertex="1" parent="pzWBq1sp7E6JB9ialVkg-2">
          <mxGeometry x="90" y="100" width="40" height="40" as="geometry" />
        </mxCell>
        <mxCell id="pzWBq1sp7E6JB9ialVkg-12" style="edgeStyle=none;html=1;fontFamily=Times New Roman;fontSize=19;endArrow=none;endFill=0;rounded=0;" edge="1" parent="pzWBq1sp7E6JB9ialVkg-2" source="pzWBq1sp7E6JB9ialVkg-4" target="pzWBq1sp7E6JB9ialVkg-11">
          <mxGeometry relative="1" as="geometry" />
        </mxCell>
        <mxCell id="pzWBq1sp7E6JB9ialVkg-13" style="edgeStyle=none;shape=connector;rounded=0;orthogonalLoop=1;jettySize=auto;html=1;exitX=0.336;exitY=0.974;exitDx=0;exitDy=0;labelBackgroundColor=default;strokeColor=default;align=center;verticalAlign=middle;fontFamily=Helvetica;fontSize=11;fontColor=default;endArrow=none;endFill=0;exitPerimeter=0;" edge="1" parent="pzWBq1sp7E6JB9ialVkg-2" source="pzWBq1sp7E6JB9ialVkg-14" target="pzWBq1sp7E6JB9ialVkg-20">
          <mxGeometry relative="1" as="geometry" />
        </mxCell>
        <mxCell id="pzWBq1sp7E6JB9ialVkg-14" value="26" style="ellipse;whiteSpace=wrap;html=1;fontFamily=Times New Roman;fontSize=19;" vertex="1" parent="pzWBq1sp7E6JB9ialVkg-2">
          <mxGeometry x="150" y="100" width="40" height="40" as="geometry" />
        </mxCell>
        <mxCell id="pzWBq1sp7E6JB9ialVkg-15" style="edgeStyle=none;html=1;fontFamily=Times New Roman;fontSize=19;endArrow=none;endFill=0;rounded=0;" edge="1" parent="pzWBq1sp7E6JB9ialVkg-2" source="pzWBq1sp7E6JB9ialVkg-6" target="pzWBq1sp7E6JB9ialVkg-14">
          <mxGeometry relative="1" as="geometry" />
        </mxCell>
        <mxCell id="pzWBq1sp7E6JB9ialVkg-16" value="31" style="ellipse;whiteSpace=wrap;html=1;fontFamily=Times New Roman;fontSize=19;" vertex="1" parent="pzWBq1sp7E6JB9ialVkg-2">
          <mxGeometry x="210" y="100" width="40" height="40" as="geometry" />
        </mxCell>
        <mxCell id="pzWBq1sp7E6JB9ialVkg-17" style="edgeStyle=none;html=1;fontFamily=Times New Roman;fontSize=19;endArrow=none;endFill=0;rounded=0;" edge="1" parent="pzWBq1sp7E6JB9ialVkg-2" source="pzWBq1sp7E6JB9ialVkg-6" target="pzWBq1sp7E6JB9ialVkg-16">
          <mxGeometry relative="1" as="geometry" />
        </mxCell>
        <mxCell id="pzWBq1sp7E6JB9ialVkg-19" value="" style="ellipse;whiteSpace=wrap;html=1;aspect=fixed;" vertex="1" parent="pzWBq1sp7E6JB9ialVkg-2">
          <mxGeometry x="130.0000000000001" y="150.00000000000023" width="40" height="40" as="geometry" />
        </mxCell>
        <mxCell id="pzWBq1sp7E6JB9ialVkg-20" value="24" style="ellipse;whiteSpace=wrap;html=1;fontFamily=Times New Roman;fontSize=19;fillColor=none;strokeColor=none;" vertex="1" parent="pzWBq1sp7E6JB9ialVkg-2">
          <mxGeometry x="130.0000000000001" y="150.00000000000023" width="40" height="40" as="geometry" />
        </mxCell>
      </root>
    </mxGraphModel>
  </diagram>
</mxfile>
